<svg xmlns="http://www.w3.org/2000/svg" version="1.1" xmlns:xlink="http://www.w3.org/1999/xlink" width="1500" height="1500" viewBox="0 0 1500 1500"><rect width="1500" height="1500" x="0" y="0" id="background" stroke="transparent" fill="#000000"></rect><svg xml:space="preserve" width="1000" height="1000" data-version="2" data-id="lg_0MvrBufv20wbIIedau" viewBox="0 0 260 238" x="250" y="250"><rect width="100%" height="100%" fill="transparent"></rect><path fill="#fff" d="m122.105 199.241 68.19-169.97q10.34-7.61 22.4-9.62l19.09 183.47q.86 11.63 6.03 16.43 5.17 4.81 18.66 5.82l-.86 3.59q-16.51-.43-25.7.28-9.18.72-19.52 4.17l-1-1.58q2.72-4.6 1.57-15.22l-16.79-166.95-73.79 184.9-10.05-4.74q-.57-10.19-8.18-28.86l-65.6-145.13-16.8 153.17q-.57 5.03.79 8.11 1.36 3.09 6.6 5.75 5.24 2.65 15.58 4.66l-.58 2.59q-23.54-1.73-36.75-1.15-1.14-1.15-1.72-2.87l21.68-187.92q-4.02-3.3-9.91-3.51-5.88-.22-11.19 1.07l-1.73-2.87q21.39-12.06 39.05-12.06 3.45 7.75 38.69 86.14 35.24 78.38 41.84 92.3"></path><rect width="253.95" height="214.91" x="-126.97" y="-107.45" fill="none" rx="0" ry="0" transform="translate(130 127.6)"></rect><path fill="#fff" d="m117.199 228.18 10.892-18.977-2.04-142.816 11.164.159-.046-3.192-9.571-.137-.115-7.972-4.781-.068-.43-30.296 7.97.113-.045-3.192-3.188-.044-.09-6.378-3.335-.048c-.762-4.51-4.752-8.04-9.537-8.106a9.767 9.493 45 0 0-6.79 2.72 9.41 9.145 45 0 0-2.522 5.12l-3.332-.05.09 6.378-3.187-.045.045 3.191 7.971.114.433 30.296-4.784-.067.115 7.97-9.568-.136.045 3.192 11.163.16 2.037 142.816zm-7.653-215.945c1.196-1.196 2.812-1.841 4.548-1.816a6.505 6.322 45 0 1 4.551 1.9 6.204 6.03 45 0 1 1.724 2.966l-12.417-.18a6.2 6.025 45 0 1 1.594-2.87m-4.904 6.02 19.13.271.045 3.184-19.13-.273zm5.283 35.146 9.56.14.021 1.587-9.558-.136zM119.1 26.43l-9.561-.138-.023-1.589 9.563.136zm.046 3.192.022 1.591-9.562-.136-.021-1.593zm.068 4.783.023 1.592-9.563-.137-.022-1.591zm.068 4.784.023 1.591-9.561-.135-.024-1.593zm.068 4.783.023 1.591-9.561-.135-.023-1.591zm.068 4.785.022 1.591-9.56-.139-.022-1.589zm-14.21 9.364 19.128.272.07 4.778-19.128-.272zm4.267 150.845 7.33-8.216 7.57 8.43-7.269 12.664zm8.884-11.197L116.72 82.663l-.113-7.895 6.3-5.078 1.93 135.294zM114.97 71.931l-7.11-5.803 14.059.203zm-1.555 2.792.128 9.036 1.622 113.965-6.27 7.029-1.93-135.29z"></path></svg></svg>